<svg width="602" height="1024" viewBox="0 0 602 1024" fill="none" xmlns="http://www.w3.org/2000/svg">
<g clip-path="url(#clip0_187_307)">
<rect width="602" height="1024" fill="white"/>
<rect x="-14" width="630" height="1038" fill="url(#paint0_linear_187_307)"/>
<rect y="768" width="602" height="256" fill="#155297"/>
<path d="M1 955V707.949C113.218 666.486 210.396 569.162 261.298 502.936C271.132 492.571 272.289 479.901 282.122 483.357C295.851 488.181 297.162 488.54 304.103 484.508C311.044 480.477 317.407 481.629 323.192 485.66C328.976 489.691 339.966 485.084 341.123 484.508C342.28 483.933 347.486 478.75 355.584 494.298C402.438 572.618 536.058 683.762 602 698.735V955H1Z" fill="#155297"/>
<path d="M303.65 483.502C310.588 479.481 316.948 480.63 322.729 484.651C328.511 488.671 339.496 484.076 340.653 483.502C341.809 482.927 347.013 477.759 355.107 493.266C369.613 517.462 392.44 544.799 419 571.453C413.957 570.278 407.412 568.049 396.736 561.988C388.641 557.393 365.514 537.864 369.562 559.691C374.294 585.211 349.904 563.137 344.122 559.691C338.34 556.245 323.308 541.885 316.369 559.691C309.431 577.497 306.54 572.327 297.868 559.691C289.195 547.054 285.726 543.608 264.334 563.137C242.941 582.666 245.254 572.327 248.145 559.691C251.036 547.054 236.581 553.373 225.596 559.691C216.808 564.745 204.204 571.37 199 573.476L203.625 568.881C227.979 544.531 244.775 522.771 260.865 501.882C270.694 491.543 271.85 478.907 281.679 482.353C295.402 487.165 296.712 487.523 303.65 483.502Z" fill="#FEFFFE"/>
<path d="M-88.5349 356.652C-89.8318 357.574 -90.7022 358.971 -90.9482 360.543C-91.1947 362.115 -90.7967 363.734 -89.8481 365.035C-88.8996 366.336 -87.48 367.21 -85.908 367.456C-84.3357 367.702 -82.7398 367.301 -81.4651 366.348C-81.4651 366.348 -81.4651 366.348 -81.4651 366.348C-75.975 362.247 -70.5376 358.159 -65.1033 354.094C-11.2779 310.81 51.1163 281.258 118.758 266.847C128.678 264.54 138.562 262.106 148.418 259.491C167.359 254.456 186.233 248.968 204.596 242.026C227.014 233.517 248.853 222.895 268.126 208.562C273.623 204.467 278.884 200.073 283.836 195.37C283.93 195.281 283.985 195.156 283.99 195.025C283.995 194.894 283.949 194.767 283.862 194.671C283.775 194.575 283.653 194.517 283.522 194.51C283.391 194.502 283.262 194.545 283.164 194.63C283.164 194.63 283.164 194.63 283.164 194.63C278.044 199.085 272.629 203.19 267.001 206.974C247.263 220.216 225.263 229.518 202.89 237.326C184.567 243.69 165.856 249.086 146.942 253.675C137.102 256.058 127.231 258.259 117.319 260.331C49.1447 273.114 -16.8856 302.48 -71.8956 344.786C-77.4417 348.734 -82.9704 352.693 -88.5349 356.652Z" fill="#F6D350"/>
<path d="M155.824 772.092C101.292 792.307 19.8864 772.288 -14 759.752C13.0308 770.134 104.752 799.199 234.5 849.5C275.183 865.272 311.47 872.661 343.276 874.518C461.5 899 493.282 836.271 506.048 819.102C476.275 834.381 400.041 858.238 333.287 831.443C249.844 797.948 275.699 746.237 283.338 736.247C290.978 726.258 302.142 707.454 343.276 712.155C308.606 689.237 273.936 714.505 265.71 718.618C257.483 722.732 223.988 746.824 155.824 772.092Z" fill="#73B9E1"/>
<path d="M558.935 742.123C557.054 769.389 537.78 780.515 528.378 782.669C548.945 796.185 583.027 795.01 593.605 790.309V733.309C575.976 710.979 554.469 698.051 536.605 695.701C544.832 699.814 560.815 714.858 558.935 742.123Z" fill="#73B9E1"/>
<path d="M496.646 779.144C386.643 826.624 332.503 790.7 319.184 766.804C380.297 802.061 426.719 796.185 484.306 774.443C541.894 752.701 537.193 715.68 496.646 708.041C550.12 698.639 553.646 747.412 496.646 779.144Z" fill="#73B9E1"/>
<path d="M347.39 921.349C271.703 926.52 187.36 899.607 154.648 885.504C253.957 885.504 241.617 832.03 241.617 831.442C241.617 830.855 238.091 801.474 185.205 800.298C258.07 755.639 280.988 828.504 332.111 859.061C383.235 889.617 452.574 891.968 506.048 863.762C493.121 899.607 441.997 914.885 347.39 921.349Z" fill="#155297"/>
<path d="M122.917 840.257C52.8719 860.471 4.41237 838.102 -11.0618 824.391L-7.53602 756.226C2.06186 748.979 24.0782 732.251 35.3606 723.319C49.4636 712.154 118.216 719.794 105.876 747.412C108.226 734.484 75.9068 724.495 70.6181 747.412C65.3295 770.329 87.0717 799.123 144.071 810.876C189.671 820.278 226.926 803.041 239.854 793.247L248.081 846.721C235.545 836.143 192.962 820.042 122.917 840.257Z" fill="#155297"/>
<path d="M57.8575 722.756C53.0443 715.508 31.4521 723.762 21.2576 728.795C56.3534 697.591 88.4409 707.154 95.9615 716.716C108.496 715.206 113.008 719.736 116.518 731.312C128.55 733.828 130.556 741.378 130.556 745.907C130.556 750.437 129.052 753.96 124.539 753.96C120.529 753.96 119.024 750.94 119.024 747.417C119.024 745.907 121.531 743.894 123.537 746.914C122.381 746.098 119.526 747.417 121.531 750.437C122.69 752.181 126.044 749.934 126.044 747.417C126.044 744.356 124.038 739.365 118.022 739.365C116.016 746.914 113.008 754.464 104.485 754.464C98.9697 754.464 95.4601 751.444 95.4601 747.417C95.4601 743.391 99.471 740.371 101.978 740.371C104.485 740.371 107.493 741.378 107.493 744.901C107.493 747.417 104.986 748.424 102.981 747.417C104.485 747.417 106.222 746.638 104.986 744.901C102.479 741.378 98.8694 743.894 99.471 746.914C100.073 749.934 107.493 753.96 109.498 745.907C111.02 739.796 105.603 732.415 102.36 729.169C103.858 730.912 104.732 735.565 96.4628 740.371C86.9368 745.907 81.9377 740.298 82.9259 735.338C83.9286 730.305 91.9505 731.312 91.4491 736.848C86.5633 732.835 85.6124 736.722 87.5506 739.061C88.0611 739.678 88.8142 740.04 89.6014 740.184C91.5749 740.545 94.3009 740.134 94.9587 735.842C95.9615 729.299 88.9423 725.776 83.4272 727.286C77.9122 728.795 77.4108 728.795 74.4026 723.762C71.9961 719.736 70.1023 721.514 69.3889 722.756C67.5828 725.9 62.6706 730.003 57.8575 722.756Z" fill="#FEFEFF"/>
<path d="M535.85 706.302C540.663 699.055 562.256 707.309 572.45 712.342C537.354 681.137 505.267 690.7 497.746 700.263C485.212 698.753 480.7 703.283 477.19 714.858C465.157 717.375 463.152 724.924 463.152 729.454C463.152 733.984 464.656 737.507 469.168 737.507C473.179 737.507 474.683 734.487 474.683 730.964C474.683 729.454 472.177 727.441 470.171 730.461C471.327 729.645 474.182 730.964 472.177 733.984C471.018 735.728 467.664 733.48 467.664 730.964C467.664 727.902 469.67 722.911 475.686 722.911C477.692 730.461 480.7 738.01 489.223 738.01C494.738 738.01 498.248 734.99 498.248 730.964C498.248 726.938 494.237 723.918 491.73 723.918C489.223 723.918 486.215 724.924 486.215 728.447C486.215 730.964 488.722 731.97 490.727 730.964C489.223 730.964 487.485 730.185 488.722 728.447C491.229 724.924 494.838 727.441 494.237 730.461C493.635 733.48 486.215 737.507 484.209 729.454C482.687 723.342 488.105 715.961 491.348 712.715C489.85 714.458 488.976 719.112 497.245 723.918C506.771 729.454 511.77 723.845 510.782 718.885C509.779 713.852 501.757 714.858 502.259 720.395C507.144 716.382 508.095 720.269 506.157 722.608C505.647 723.224 504.894 723.587 504.106 723.731C502.133 724.092 499.407 723.681 498.749 719.388C497.746 712.845 504.765 709.322 510.281 710.832C515.796 712.342 516.297 712.342 519.305 707.309C521.712 703.283 523.606 705.061 524.319 706.302C526.125 709.446 531.037 713.55 535.85 706.302Z" fill="#FEFEFF"/>
<path d="M236.161 799.147C240.974 791.9 262.567 800.154 272.761 805.187C237.665 773.982 205.578 783.545 198.057 793.108C185.523 791.598 181.011 796.127 177.501 807.703C165.468 810.22 163.463 817.769 163.463 822.299C163.463 826.828 164.967 830.351 169.479 830.351C173.49 830.351 174.994 827.332 174.994 823.809C174.994 822.299 172.488 820.285 170.482 823.305C171.638 822.49 174.493 823.809 172.488 826.828C171.329 828.572 167.975 826.325 167.975 823.809C167.975 820.747 169.981 815.756 175.997 815.756C178.003 823.305 181.011 830.855 189.534 830.855C195.049 830.855 198.559 827.835 198.559 823.809C198.559 819.782 194.548 816.762 192.041 816.762C189.534 816.762 186.526 817.769 186.526 821.292C186.526 823.809 189.033 824.815 191.038 823.809C189.534 823.809 187.796 823.03 189.033 821.292C191.54 817.769 195.149 820.286 194.548 823.305C193.946 826.325 186.526 830.351 184.52 822.299C182.998 816.187 188.416 808.806 191.659 805.56C190.161 807.303 189.287 811.957 197.556 816.762C207.082 822.299 212.081 816.689 211.093 811.729C210.09 806.696 202.068 807.703 202.57 813.239C207.455 809.227 208.406 813.114 206.468 815.453C205.958 816.069 205.205 816.431 204.417 816.575C202.444 816.937 199.718 816.525 199.06 812.233C198.057 805.69 205.076 802.167 210.592 803.677C216.107 805.187 216.608 805.187 219.616 800.154C222.023 796.127 223.917 797.905 224.63 799.147C226.436 802.291 231.348 806.395 236.161 799.147Z" fill="#FEFEFF"/>
<path d="M312.946 711.658C306.425 701.874 277.171 713.017 263.359 719.812C310.908 677.686 354.382 690.595 364.571 703.505C381.553 701.466 387.666 707.581 392.421 723.209C408.724 726.606 411.441 736.798 411.441 742.913C411.441 749.028 409.403 753.784 403.289 753.784C397.855 753.784 395.817 749.707 395.817 744.951C395.817 742.913 399.214 740.195 401.931 744.272C400.365 743.171 396.497 744.951 399.214 749.028C400.783 751.382 405.327 748.348 405.327 744.951C405.327 740.818 402.61 734.08 394.459 734.08C391.742 744.272 387.666 754.464 376.118 754.464C368.646 754.464 363.892 750.387 363.892 744.951C363.892 739.516 369.326 735.439 372.722 735.439C376.118 735.439 380.194 736.798 380.194 741.554C380.194 744.951 376.798 746.31 374.081 744.951C376.118 744.951 378.473 743.9 376.798 741.554C373.401 736.798 368.511 740.195 369.326 744.272C370.141 748.348 380.194 753.784 382.911 742.913C384.973 734.662 377.634 724.697 373.24 720.316C375.27 722.668 376.454 728.951 365.25 735.439C352.344 742.913 345.571 735.34 346.91 728.644C348.268 721.85 359.137 723.209 358.457 730.683C351.61 725.079 350.467 730.887 353.461 733.989C354.015 734.564 354.755 734.921 355.533 735.1C358.223 735.718 362.273 735.43 363.212 729.324C364.571 720.491 355.061 715.735 347.589 717.773C340.117 719.812 339.438 719.812 335.362 713.017C332.102 707.582 329.536 709.982 328.569 711.658C326.122 715.902 319.467 721.442 312.946 711.658Z" fill="#FEFEFF"/>
<circle cx="446.5" cy="225.5" r="47.5" fill="#F6D350"/>
<path d="M272.801 928.324C302.492 955.731 329.915 967.971 398.698 976.84L-127 976.84V895.161C-110.623 903.963 -65.2182 910.391 -14.6137 865.682C48.642 809.796 72.5932 806.111 118.039 839.275C57.2398 832.519 57.8539 869.981 66.4518 895.161C75.0496 920.34 121.11 958.416 185.594 902.53C250.078 846.644 287.54 869.981 312.105 906.215C283.855 886.563 248.849 906.215 272.801 928.324Z" fill="#125398"/>
<path d="M244.55 883.468C238.655 874.625 212.206 884.697 199.719 890.838C242.708 852.762 282.013 864.43 291.225 876.099C306.578 874.257 312.105 879.784 316.404 893.909C331.143 896.979 333.6 906.191 333.6 911.719C333.6 917.246 331.757 921.545 326.23 921.545C321.317 921.545 319.475 917.86 319.475 913.561C319.475 911.719 322.545 909.262 325.002 912.947C323.586 911.952 320.089 913.561 322.545 917.246C323.964 919.374 328.073 916.632 328.073 913.561C328.073 909.825 325.616 903.735 318.246 903.735C315.79 912.947 312.105 922.159 301.665 922.159C294.909 922.159 290.61 918.474 290.61 913.561C290.61 908.648 295.523 904.963 298.594 904.963C301.665 904.963 305.35 906.191 305.35 910.49C305.35 913.561 302.279 914.789 299.822 913.561C301.665 913.561 303.793 912.611 302.279 910.49C299.208 906.191 294.787 909.262 295.523 912.947C296.26 916.632 305.35 921.545 307.806 911.719C309.67 904.261 303.035 895.254 299.062 891.294C300.897 893.42 301.968 899.099 291.839 904.963C280.17 911.719 274.047 904.874 275.257 898.822C276.485 892.68 286.311 893.909 285.697 900.664C279.567 895.649 278.494 900.747 281.101 903.569C281.643 904.156 282.386 904.513 283.166 904.682C285.597 905.207 289.16 904.87 289.996 899.436C291.225 891.452 282.627 887.153 275.871 888.996C269.116 890.838 268.502 890.838 264.817 884.697C261.869 879.784 259.549 881.953 258.676 883.468C256.463 887.305 250.446 892.312 244.55 883.468Z" fill="#FEFEFF"/>
<path d="M60.7612 838.055C53.6755 827.451 21.8886 840.237 6.88086 847.601C58.5469 801.944 105.784 815.227 116.856 829.219C135.308 827.009 141.951 833.637 147.117 850.574C164.831 854.256 167.784 865.302 167.784 871.93C167.784 878.557 165.569 883.712 158.927 883.712C153.022 883.712 150.808 879.294 150.808 874.139C150.808 871.93 154.498 868.984 157.45 873.403C155.749 872.209 151.546 874.139 154.498 878.557C156.203 881.109 161.141 877.821 161.141 874.139C161.141 869.66 158.189 862.357 149.332 862.357C146.379 873.403 141.951 884.449 129.403 884.449C121.284 884.449 116.118 880.03 116.118 874.139C116.118 868.248 122.022 863.829 125.713 863.829C129.403 863.829 133.832 865.302 133.832 870.457C133.832 874.139 130.141 875.612 127.189 874.139C129.403 874.139 131.961 872.999 130.141 870.457C126.451 865.302 121.137 868.984 122.022 873.403C122.908 877.821 133.832 883.712 136.784 871.93C139.025 862.988 131.049 852.188 126.276 847.438C128.481 849.989 129.767 856.798 117.594 863.829C103.57 871.93 96.2108 863.722 97.6655 856.465C99.1417 849.101 110.951 850.574 110.213 858.675C102.717 852.556 101.513 858.99 104.857 862.332C105.421 862.896 106.158 863.252 106.933 863.438C109.855 864.139 114.347 863.897 115.38 857.202C116.856 847.629 106.523 842.474 98.4036 844.683C90.2846 846.892 89.5465 846.892 85.118 839.528C81.5752 833.637 78.7873 836.239 77.7372 838.055C75.0782 842.655 67.8468 848.659 60.7612 838.055Z" fill="#FEFEFF"/>
<path d="M554.382 839.307C478.872 772.594 445.75 768.412 391.5 808C417.5 789.027 489.5 816.697 491.5 873.5C493.5 930.303 476.5 968.113 334 965.5C334 965.5 428.5 1022.5 504 1039C579.5 1055.5 625.5 1055.5 625.5 1055.5L688.541 972V874.497C668.991 885.004 614.79 892.678 554.382 839.307Z" fill="#73B9E1"/>
<path d="M439.183 790.507C437.087 796.836 434.991 803.164 432.896 809.493C437.069 811.156 441.327 813.362 445.214 815.839C456.349 822.907 464.999 832.599 469.426 844.088C471.463 849.299 472.642 854.903 473.025 860.755C473.33 865.389 473.334 870.059 473.027 874.705C472.094 889.017 468.134 902.992 461.058 915.111C454.012 927.264 443.879 937.453 431.8 945.28C411.841 958.215 387.468 964.299 362.707 967.379C352.582 968.631 342.267 970.344 331.867 972.641C326.585 973.781 321.585 975.066 316.103 976.501C316.034 979.834 315.966 983.166 315.897 986.499C321.447 988.159 326.64 989.457 332.227 990.38C343.226 992.244 354.578 992.568 365.653 991.197C392.74 987.783 420.106 980.211 444.339 964.562C459.001 955.083 471.976 942.168 480.936 926.68C489.957 911.234 494.844 893.672 495.977 876.221C496.352 870.547 496.345 864.877 495.975 859.245C495.459 851.314 493.819 843.31 490.851 835.723C484.381 818.816 470.958 805.335 455.931 797.363C450.613 794.51 445.068 792.198 439.183 790.507Z" fill="#125398"/>
<path d="M353.74 969.967C319.914 971.077 295.153 944.055 287 930.405C294.876 935.264 353.74 940.122 382.758 930.405C411.775 920.689 452.399 901.949 456.959 865.164C453.228 877.657 411.775 893.62 382.758 887.374C416.335 882.516 441.207 837.402 441.207 826.991C441.207 818.662 434.574 812.878 431.258 811.027C451.018 810.102 479.344 832.545 473.126 881.127C464.509 948.453 396.023 968.579 353.74 969.967Z" fill="#73B9E1"/>
<path d="M464.405 806.328C472.863 793.67 510.808 808.932 528.723 817.723C467.048 763.221 410.659 779.077 397.443 795.779C375.416 793.142 367.487 801.054 361.319 821.272C340.173 825.668 336.649 838.853 336.649 846.765C336.649 854.677 339.292 860.83 347.222 860.83C354.27 860.83 356.914 855.556 356.914 849.402C356.914 846.765 352.508 843.249 348.984 848.523C351.016 847.099 356.033 849.402 352.508 854.677C350.473 857.723 344.579 853.797 344.579 849.402C344.579 844.055 348.103 835.337 358.676 835.337C362.2 848.523 367.487 861.709 382.465 861.709C392.157 861.709 398.324 856.435 398.324 849.402C398.324 842.37 391.276 837.095 386.87 837.095C382.465 837.095 377.178 838.853 377.178 845.007C377.178 849.402 381.584 851.16 385.108 849.402C382.465 849.402 379.411 848.042 381.584 845.007C385.989 838.853 392.333 843.249 391.276 848.523C390.218 853.797 377.178 860.83 373.654 846.765C370.979 836.091 380.5 823.198 386.198 817.529C383.566 820.573 382.03 828.701 396.562 837.095C413.302 846.765 422.088 836.968 420.351 828.305C418.589 819.514 404.492 821.272 405.373 830.942C414.444 823.537 415.797 831.533 411.599 835.471C411.017 836.016 410.286 836.371 409.515 836.571C406.037 837.474 400.465 837.351 399.205 829.184C397.443 817.756 409.778 811.603 419.47 814.24C429.162 816.877 430.043 816.877 435.329 808.086C439.559 801.054 442.887 804.159 444.14 806.328C447.314 811.819 455.947 818.987 464.405 806.328Z" fill="#FEFEFF"/>
<path d="M326.452 160.15C327.025 159.993 327.638 159.939 328.216 160.088C328.795 160.237 329.288 160.573 329.607 161.052C329.926 161.53 330.052 162.125 329.98 162.735C329.908 163.346 329.64 163.918 329.292 164.413C328.913 164.95 328.517 165.465 328.106 165.955C326.912 167.381 325.587 168.61 324.131 169.643C322.917 170.504 321.694 171.354 320.469 172.199L320.986 193.011L318.095 195L313.333 176.991C309.212 179.685 305.035 182.294 300.797 184.811C300.725 184.854 300.653 184.896 300.58 184.939C300.761 186.521 300.868 188.117 300.896 189.725C300.901 189.989 300.903 190.255 300.904 190.519C300.079 190.661 299.255 190.802 298.431 190.944C298.348 190.693 298.267 190.442 298.188 190.191C297.754 188.802 297.383 187.401 297.074 185.991C296.56 185.818 296.113 185.482 295.807 185.023C295.528 184.604 295.381 184.108 295.379 183.6C294.106 182.914 292.86 182.166 291.643 181.353C291.428 181.21 291.213 181.064 291 180.916C291.346 180.132 291.692 179.347 292.038 178.563C292.286 178.631 292.533 178.702 292.779 178.775C294.411 179.257 296.005 179.825 297.56 180.481C297.635 180.418 297.711 180.355 297.786 180.293C301.492 177.187 305.255 174.166 309.074 171.228L293.447 162.333L296.186 160.45L296.422 160.288L316.288 165.826C317.477 164.96 318.67 164.1 319.87 163.249C321.326 162.216 322.913 161.38 324.631 160.741C325.222 160.521 325.83 160.323 326.452 160.15Z" fill="white"/>
</g>
<defs>
<linearGradient id="paint0_linear_187_307" x1="301" y1="0" x2="301" y2="1038" gradientUnits="userSpaceOnUse">
<stop stop-color="#013F89"/>
<stop offset="0.471154" stop-color="#6AA7D1"/>
<stop offset="1" stop-color="#B6DEF7"/>
</linearGradient>
<clipPath id="clip0_187_307">
<rect width="602" height="1024" fill="white"/>
</clipPath>
</defs>
</svg>
